<?xml version="1.0" encoding="utf-8"?>
<!-- Svg Vector Icons : http://www.onlinewebfonts.com/icon -->
<!DOCTYPE svg PUBLIC "-//W3C//DTD SVG 1.1//EN" "http://www.w3.org/Graphics/SVG/1.1/DTD/svg11.dtd">
<svg version="1.1" xmlns="http://www.w3.org/2000/svg" xmlns:xlink="http://www.w3.org/1999/xlink" x="0px" y="0px" viewBox="0 0 256 256" enable-background="new 0 0 256 256" xml:space="preserve">
<metadata> Svg Vector Icons : http://www.onlinewebfonts.com/icon </metadata>
<g><g><g><path fill="#000000" d="M34.1,10.6c-13.5,2.9-23,13.8-24,27.4c-0.4,4.8,0.8,10.2,3.2,15.2l1.8,3.9l35.3,35.4L85.8,128l-35.3,35.4l-35.4,35.4l-1.9,3.9c-3.1,6.4-3.9,12.5-2.5,19.3c1.8,8.9,8,17,15.9,20.8c8.9,4.3,17.7,4.3,26.7,0l3.9-1.8l35.4-35.3l35.4-35.4l35.4,35.3l35.4,35.4l3.9,1.9c8.9,4.2,17.8,4.2,26.7,0c5.5-2.6,10.7-7.8,13.3-13.3c4.3-8.9,4.3-17.8,0-26.7l-1.9-3.9l-35.4-35.4L170.2,128l35.4-35.4l35.3-35.4l1.8-3.9c4.3-9,4.3-17.8,0-26.7c-2.6-5.5-7.8-10.7-13.3-13.3c-8.9-4.3-17.9-4.3-26.7,0l-3.9,1.9l-35.4,35.4L128,85.8L92.6,50.4L57.2,15.1l-3.9-1.8C46.8,10.2,40.3,9.3,34.1,10.6z"/></g></g></g>
</svg>