<?xml version="1.0" encoding="utf-8"?>
<!-- Svg Vector Icons : http://www.onlinewebfonts.com/icon -->
<!DOCTYPE svg PUBLIC "-//W3C//DTD SVG 1.1//EN" "http://www.w3.org/Graphics/SVG/1.1/DTD/svg11.dtd">
<svg version="1.1" xmlns="http://www.w3.org/2000/svg" xmlns:xlink="http://www.w3.org/1999/xlink" x="0px" y="0px" viewBox="0 0 256 256" enable-background="new 0 0 256 256" xml:space="preserve">
<metadata> Svg Vector Icons : http://www.onlinewebfonts.com/icon </metadata>
<g><g><g><g id="hamburger"><g><path fill="#000000" d="M234.2,210.6H21.8c-6.5,0-11.8,5.3-11.8,11.8c0,6.5,5.3,11.8,11.8,11.8h212.4c6.5,0,11.8-5.3,11.8-11.8S240.7,210.6,234.2,210.6z M21.8,45.4h212.4c6.5,0,11.8-5.3,11.8-11.8c0-6.5-5.3-11.8-11.8-11.8H21.8c-6.5,0-11.8,5.3-11.8,11.8C10,40.1,15.3,45.4,21.8,45.4z M234.2,116.2H21.8c-6.5,0-11.8,5.3-11.8,11.8s5.3,11.8,11.8,11.8h212.4c6.5,0,11.8-5.3,11.8-11.8S240.7,116.2,234.2,116.2z"/></g></g></g><g></g><g></g><g></g><g></g><g></g><g></g><g></g><g></g><g></g><g></g><g></g><g></g><g></g><g></g><g></g></g></g>
</svg>